<svg xmlns="http://www.w3.org/2000/svg" xmlns:xlink="http://www.w3.org/1999/xlink" width="500" zoomAndPan="magnify" viewBox="0 0 375 374.999991" height="500" preserveAspectRatio="xMidYMid meet" version="1.0"><defs><clipPath id="ea2ce623d2"><path d="M 123 104 L 315 104 L 315 313 L 123 313 Z M 123 104 " clip-rule="nonzero"/></clipPath><clipPath id="57550655e1"><path d="M 21.996094 134.074219 L 235.851562 10.984375 L 352.957031 214.441406 L 139.101562 337.53125 Z M 21.996094 134.074219 " clip-rule="nonzero"/></clipPath><clipPath id="3c692eac23"><path d="M 21.996094 134.074219 L 235.851562 10.984375 L 352.957031 214.441406 L 139.101562 337.53125 Z M 21.996094 134.074219 " clip-rule="nonzero"/></clipPath><clipPath id="1cac70220e"><path d="M 55 80 L 248 80 L 248 247 L 55 247 Z M 55 80 " clip-rule="nonzero"/></clipPath><clipPath id="ffe2c40b42"><path d="M 21.996094 134.074219 L 235.851562 10.984375 L 352.957031 214.441406 L 139.101562 337.53125 Z M 21.996094 134.074219 " clip-rule="nonzero"/></clipPath><clipPath id="bb0452f16c"><path d="M 21.996094 134.074219 L 235.851562 10.984375 L 352.957031 214.441406 L 139.101562 337.53125 Z M 21.996094 134.074219 " clip-rule="nonzero"/></clipPath></defs><rect x="-37.5" width="450" fill="#ffffff" y="-37.499999" height="449.999989" fill-opacity="1"/><rect x="-37.5" width="450" fill="#ffffff" y="-37.499999" height="449.999989" fill-opacity="1"/><rect x="-37.5" width="450" fill="#ffffff" y="-37.499999" height="449.999989" fill-opacity="1"/><g clip-path="url(#ea2ce623d2)"><g clip-path="url(#57550655e1)"><g clip-path="url(#3c692eac23)"><path fill="#a100ff" d="M 232.144531 283.734375 C 216.445312 292.769531 200.792969 301.890625 185.007812 310.804688 C 178.921875 314.246094 171.496094 313.292969 166.75 309.023438 C 161.425781 304.238281 159.21875 296.847656 162.515625 290.710938 C 164.378906 287.242188 167.738281 284.074219 171.179688 282.054688 C 199.355469 265.542969 227.761719 249.449219 255.980469 233.011719 C 277.964844 220.203125 287.003906 195.617188 278.964844 171.558594 C 269.082031 141.984375 234.097656 128.203125 206.707031 143.410156 C 186.996094 154.347656 167.597656 165.839844 148.050781 177.058594 C 142.03125 180.511719 135.992188 180.460938 130.144531 176.675781 C 124.90625 173.269531 121.871094 167.984375 123.460938 162.175781 C 124.730469 157.5 127.617188 151.875 131.507812 149.542969 C 153.003906 136.683594 174.492188 123.632812 196.992188 112.691406 C 229.09375 97.074219 268.320312 105.847656 292.351562 132.136719 C 328.101562 171.238281 318.875 233.148438 273.207031 260.078125 C 259.605469 268.089844 245.839844 275.851562 232.144531 283.734375 Z M 232.144531 283.734375 " fill-opacity="1" fill-rule="nonzero"/></g></g></g><g clip-path="url(#1cac70220e)"><g clip-path="url(#ffe2c40b42)"><g clip-path="url(#bb0452f16c)"><path fill="#a100ff" d="M 207.109375 219.285156 C 194.347656 226.628906 182.164062 235.335938 168.714844 241.046875 C 135.828125 255.023438 93.042969 242.023438 72.046875 213.03125 C 49.644531 182.089844 50.839844 139.539062 74.398438 110.824219 C 85.019531 97.882812 98.953125 89.8125 113.296875 82.277344 C 120.941406 78.265625 130.0625 81.605469 134.128906 88.792969 C 138.191406 95.976562 136.277344 105.210938 129.207031 110.132812 C 124.378906 113.496094 119.085938 116.175781 113.988281 119.160156 C 89.441406 133.53125 80.542969 163.285156 94.394531 188.039062 C 108.628906 213.476562 138.480469 221.140625 162.023438 208.875 C 181.0625 198.953125 199.417969 187.695312 218.085938 177.054688 C 220.277344 175.800781 222.480469 174.511719 224.804688 173.5625 C 232.738281 170.320312 241.75 173.570312 245.359375 180.851562 C 249.027344 188.246094 246.613281 197.574219 239.421875 201.910156 C 228.949219 208.210938 218.265625 214.15625 207.675781 220.253906 C 207.492188 219.929688 207.300781 219.601562 207.109375 219.285156 Z M 207.109375 219.285156 " fill-opacity="1" fill-rule="nonzero"/></g></g></g></svg>