<svg xmlns="http://www.w3.org/2000/svg" xmlns:xlink="http://www.w3.org/1999/xlink" width="500" zoomAndPan="magnify" viewBox="0 0 375 374.999991" height="500" preserveAspectRatio="xMidYMid meet" version="1.0"><defs><g/><clipPath id="fb4310a27e"><path d="M 157 91 L 246 91 L 246 188 L 157 188 Z M 157 91 " clip-rule="nonzero"/></clipPath><clipPath id="bc1cf208f0"><path d="M 111.476562 105.007812 L 209.628906 48.511719 L 263.503906 142.117188 L 165.351562 198.609375 Z M 111.476562 105.007812 " clip-rule="nonzero"/></clipPath><clipPath id="00d4471cfd"><path d="M 111.476562 105.007812 L 209.628906 48.511719 L 263.503906 142.117188 L 165.351562 198.609375 Z M 111.476562 105.007812 " clip-rule="nonzero"/></clipPath><clipPath id="a8e5538ceb"><path d="M 127 80 L 215 80 L 215 157 L 127 157 Z M 127 80 " clip-rule="nonzero"/></clipPath><clipPath id="54c45211c2"><path d="M 111.476562 105.007812 L 209.628906 48.511719 L 263.503906 142.117188 L 165.351562 198.609375 Z M 111.476562 105.007812 " clip-rule="nonzero"/></clipPath><clipPath id="2e8ba8d590"><path d="M 111.476562 105.007812 L 209.628906 48.511719 L 263.503906 142.117188 L 165.351562 198.609375 Z M 111.476562 105.007812 " clip-rule="nonzero"/></clipPath></defs><rect x="-37.5" width="450" fill="#ffffff" y="-37.499999" height="449.999989" fill-opacity="1"/><rect x="-37.5" width="450" fill="#ffffff" y="-37.499999" height="449.999989" fill-opacity="1"/><rect x="-37.5" width="450" fill="#ffffff" y="-37.499999" height="449.999989" fill-opacity="1"/><g clip-path="url(#fb4310a27e)"><g clip-path="url(#bc1cf208f0)"><g clip-path="url(#00d4471cfd)"><path fill="#a100ff" d="M 208.054688 173.917969 C 200.847656 178.066406 193.664062 182.253906 186.421875 186.34375 C 183.628906 187.921875 180.21875 187.480469 178.035156 185.515625 C 175.589844 183.3125 174.570312 179.914062 176.082031 177.09375 C 176.9375 175.5 178.476562 174.046875 180.058594 173.117188 C 192.988281 165.539062 206.027344 158.152344 218.976562 150.609375 C 229.066406 144.730469 233.207031 133.429688 229.503906 122.363281 C 224.953125 108.761719 208.878906 102.410156 196.308594 109.386719 C 187.261719 114.40625 178.355469 119.679688 169.386719 124.832031 C 166.621094 126.414062 163.847656 126.390625 161.164062 124.644531 C 158.753906 123.078125 157.359375 120.644531 158.085938 117.976562 C 158.667969 115.828125 159.988281 113.242188 161.777344 112.171875 C 171.640625 106.269531 181.503906 100.277344 191.832031 95.257812 C 206.566406 88.09375 224.582031 92.144531 235.632812 104.242188 C 252.070312 122.238281 247.863281 150.703125 226.902344 163.0625 C 220.660156 166.738281 214.339844 170.300781 208.054688 173.917969 Z M 208.054688 173.917969 " fill-opacity="1" fill-rule="nonzero"/></g></g></g><g clip-path="url(#a8e5538ceb)"><g clip-path="url(#54c45211c2)"><g clip-path="url(#2e8ba8d590)"><path fill="#a100ff" d="M 196.527344 144.273438 C 190.671875 147.644531 185.078125 151.640625 178.90625 154.261719 C 163.808594 160.671875 144.15625 154.675781 134.5 141.332031 C 124.195312 127.097656 124.726562 107.53125 135.53125 94.339844 C 140.402344 88.394531 146.796875 84.691406 153.378906 81.234375 C 156.886719 79.394531 161.082031 80.933594 162.949219 84.242188 C 164.820312 87.542969 163.945312 91.789062 160.699219 94.050781 C 158.484375 95.59375 156.054688 96.824219 153.714844 98.191406 C 142.449219 104.789062 138.378906 118.464844 144.75 129.855469 C 151.296875 141.554688 165.011719 145.09375 175.816406 139.464844 C 184.558594 134.914062 192.980469 129.746094 201.546875 124.859375 C 202.554688 124.285156 203.566406 123.695312 204.632812 123.257812 C 208.273438 121.773438 212.414062 123.273438 214.074219 126.621094 C 215.761719 130.023438 214.660156 134.3125 211.359375 136.300781 C 206.554688 139.191406 201.648438 141.921875 196.789062 144.71875 C 196.703125 144.570312 196.617188 144.417969 196.527344 144.273438 Z M 196.527344 144.273438 " fill-opacity="1" fill-rule="nonzero"/></g></g></g><g fill="#ffffff" fill-opacity="1"><g transform="translate(28.761717, 266.448777)"><g><path d="M 22.15625 0.71875 C 18.6875 0.71875 15.601562 0.289062 12.90625 -0.5625 C 10.207031 -1.414062 7.957031 -2.535156 6.15625 -3.921875 C 4.351562 -5.316406 2.972656 -6.847656 2.015625 -8.515625 L 7.453125 -15.140625 L 8.3125 -15.140625 C 9.8125 -12.910156 11.71875 -11.132812 14.03125 -9.8125 C 16.34375 -8.488281 19.050781 -7.828125 22.15625 -7.828125 C 24.789062 -7.828125 26.78125 -8.382812 28.125 -9.5 C 29.46875 -10.613281 30.140625 -12.148438 30.140625 -14.109375 C 30.140625 -15.296875 29.921875 -16.285156 29.484375 -17.078125 C 29.054688 -17.878906 28.34375 -18.566406 27.34375 -19.140625 C 26.34375 -19.710938 24.988281 -20.203125 23.28125 -20.609375 L 16.84375 -22.078125 C 12.363281 -23.109375 9.019531 -24.8125 6.8125 -27.1875 C 4.613281 -29.570312 3.515625 -32.664062 3.515625 -36.46875 C 3.515625 -39.289062 4.222656 -41.773438 5.640625 -43.921875 C 7.054688 -46.066406 9.113281 -47.726562 11.8125 -48.90625 C 14.507812 -50.09375 17.738281 -50.6875 21.5 -50.6875 C 25.351562 -50.6875 28.648438 -50.175781 31.390625 -49.15625 C 34.140625 -48.144531 36.457031 -46.59375 38.34375 -44.5 L 33.46875 -37.796875 L 32.609375 -37.796875 C 31.191406 -39.285156 29.570312 -40.398438 27.75 -41.140625 C 25.925781 -41.878906 23.84375 -42.25 21.5 -42.25 C 18.789062 -42.25 16.726562 -41.769531 15.3125 -40.8125 C 13.894531 -39.851562 13.1875 -38.53125 13.1875 -36.84375 C 13.1875 -35.269531 13.679688 -34.015625 14.671875 -33.078125 C 15.671875 -32.148438 17.390625 -31.425781 19.828125 -30.90625 L 26.390625 -29.53125 C 31.242188 -28.507812 34.765625 -26.769531 36.953125 -24.3125 C 39.140625 -21.863281 40.234375 -18.671875 40.234375 -14.734375 C 40.234375 -11.609375 39.5625 -8.890625 38.21875 -6.578125 C 36.875 -4.265625 34.84375 -2.46875 32.125 -1.1875 C 29.414062 0.0820312 26.09375 0.71875 22.15625 0.71875 Z M 22.15625 0.71875 "/></g></g></g><g fill="#ffffff" fill-opacity="1"><g transform="translate(71.689006, 266.448777)"><g><path d="M 37.25 -16.71875 L 13.015625 -16.71875 C 13.296875 -13.4375 14.234375 -11.046875 15.828125 -9.546875 C 17.421875 -8.054688 19.597656 -7.3125 22.359375 -7.3125 C 24.515625 -7.3125 26.265625 -7.710938 27.609375 -8.515625 C 28.960938 -9.328125 30.046875 -10.554688 30.859375 -12.203125 L 31.578125 -12.203125 L 37.875 -8.171875 C 36.644531 -5.523438 34.785156 -3.378906 32.296875 -1.734375 C 29.816406 -0.0976562 26.503906 0.71875 22.359375 0.71875 C 18.460938 0.71875 15.09375 -0.0195312 12.25 -1.5 C 9.414062 -2.976562 7.226562 -5.179688 5.6875 -8.109375 C 4.15625 -11.046875 3.390625 -14.617188 3.390625 -18.828125 C 3.390625 -23.117188 4.195312 -26.734375 5.8125 -29.671875 C 7.425781 -32.609375 9.613281 -34.800781 12.375 -36.25 C 15.132812 -37.695312 18.234375 -38.421875 21.671875 -38.421875 C 27.003906 -38.421875 31.085938 -37.003906 33.921875 -34.171875 C 36.753906 -31.347656 38.171875 -27.203125 38.171875 -21.734375 C 38.171875 -19.753906 38.101562 -18.21875 37.96875 -17.125 Z M 29.125 -22.828125 C 29.03125 -25.703125 28.363281 -27.789062 27.125 -29.09375 C 25.882812 -30.40625 24.066406 -31.0625 21.671875 -31.0625 C 16.890625 -31.0625 14.078125 -28.316406 13.234375 -22.828125 Z M 29.125 -22.828125 "/></g></g></g><g fill="#ffffff" fill-opacity="1"><g transform="translate(112.668167, 266.448777)"><g><path d="M 5.4375 0 L 5.4375 -37.703125 L 14.625 -37.703125 L 14.625 -32.09375 L 15.34375 -31.953125 C 16.257812 -34.054688 17.457031 -35.597656 18.9375 -36.578125 C 20.414062 -37.554688 22.21875 -38.046875 24.34375 -38.046875 C 26.476562 -38.046875 28.101562 -37.679688 29.21875 -36.953125 L 27.625 -28.78125 L 26.90625 -28.640625 C 26.289062 -28.890625 25.695312 -29.070312 25.125 -29.1875 C 24.550781 -29.300781 23.851562 -29.359375 23.03125 -29.359375 C 20.394531 -29.359375 18.378906 -28.429688 16.984375 -26.578125 C 15.597656 -24.722656 14.90625 -21.742188 14.90625 -17.640625 L 14.90625 0 Z M 5.4375 0 "/></g></g></g><g fill="#ffffff" fill-opacity="1"><g transform="translate(142.231951, 266.448777)"><g><path d="M 25.9375 0 L 14.65625 0 L 0.71875 -37.703125 L 10.625 -37.703125 L 20 -10.828125 L 20.78125 -10.828125 L 30.1875 -37.703125 L 39.859375 -37.703125 Z M 25.9375 0 "/></g></g></g><g fill="#ffffff" fill-opacity="1"><g transform="translate(182.766795, 266.448777)"><g><path d="M 37.25 -16.71875 L 13.015625 -16.71875 C 13.296875 -13.4375 14.234375 -11.046875 15.828125 -9.546875 C 17.421875 -8.054688 19.597656 -7.3125 22.359375 -7.3125 C 24.515625 -7.3125 26.265625 -7.710938 27.609375 -8.515625 C 28.960938 -9.328125 30.046875 -10.554688 30.859375 -12.203125 L 31.578125 -12.203125 L 37.875 -8.171875 C 36.644531 -5.523438 34.785156 -3.378906 32.296875 -1.734375 C 29.816406 -0.0976562 26.503906 0.71875 22.359375 0.71875 C 18.460938 0.71875 15.09375 -0.0195312 12.25 -1.5 C 9.414062 -2.976562 7.226562 -5.179688 5.6875 -8.109375 C 4.15625 -11.046875 3.390625 -14.617188 3.390625 -18.828125 C 3.390625 -23.117188 4.195312 -26.734375 5.8125 -29.671875 C 7.425781 -32.609375 9.613281 -34.800781 12.375 -36.25 C 15.132812 -37.695312 18.234375 -38.421875 21.671875 -38.421875 C 27.003906 -38.421875 31.085938 -37.003906 33.921875 -34.171875 C 36.753906 -31.347656 38.171875 -27.203125 38.171875 -21.734375 C 38.171875 -19.753906 38.101562 -18.21875 37.96875 -17.125 Z M 29.125 -22.828125 C 29.03125 -25.703125 28.363281 -27.789062 27.125 -29.09375 C 25.882812 -30.40625 24.066406 -31.0625 21.671875 -31.0625 C 16.890625 -31.0625 14.078125 -28.316406 13.234375 -22.828125 Z M 29.125 -22.828125 "/></g></g></g><g fill="#ffffff" fill-opacity="1"><g transform="translate(223.745957, 266.448777)"><g><path d="M 17.640625 0.71875 C 15.066406 0.71875 12.707031 0.414062 10.5625 -0.1875 C 8.414062 -0.789062 6.582031 -1.617188 5.0625 -2.671875 C 3.550781 -3.734375 2.429688 -4.953125 1.703125 -6.328125 L 6.96875 -12 L 7.6875 -12 C 8.945312 -10.3125 10.429688 -9.046875 12.140625 -8.203125 C 13.847656 -7.359375 15.703125 -6.9375 17.703125 -6.9375 C 19.546875 -6.9375 20.9375 -7.265625 21.875 -7.921875 C 22.8125 -8.585938 23.28125 -9.535156 23.28125 -10.765625 C 23.28125 -11.722656 22.941406 -12.523438 22.265625 -13.171875 C 21.597656 -13.828125 20.507812 -14.335938 19 -14.703125 L 14.015625 -15.890625 C 10.273438 -16.785156 7.546875 -18.148438 5.828125 -19.984375 C 4.109375 -21.816406 3.25 -24.144531 3.25 -26.96875 C 3.25 -29.3125 3.847656 -31.347656 5.046875 -33.078125 C 6.242188 -34.816406 7.925781 -36.140625 10.09375 -37.046875 C 12.269531 -37.960938 14.804688 -38.421875 17.703125 -38.421875 C 21.097656 -38.421875 23.910156 -37.929688 26.140625 -36.953125 C 28.378906 -35.972656 30.125 -34.660156 31.375 -33.015625 L 26.3125 -27.546875 L 25.640625 -27.546875 C 24.585938 -28.734375 23.40625 -29.597656 22.09375 -30.140625 C 20.78125 -30.691406 19.316406 -30.96875 17.703125 -30.96875 C 13.960938 -30.96875 12.09375 -29.804688 12.09375 -27.484375 C 12.09375 -26.503906 12.441406 -25.707031 13.140625 -25.09375 C 13.835938 -24.476562 15.0625 -23.972656 16.8125 -23.578125 L 21.46875 -22.5625 C 25.289062 -21.738281 28.082031 -20.421875 29.84375 -18.609375 C 31.613281 -16.796875 32.5 -14.363281 32.5 -11.3125 C 32.5 -8.914062 31.90625 -6.804688 30.71875 -4.984375 C 29.539062 -3.160156 27.832031 -1.753906 25.59375 -0.765625 C 23.363281 0.222656 20.710938 0.71875 17.640625 0.71875 Z M 17.640625 0.71875 "/></g></g></g><g fill="#a100ff" fill-opacity="1"><g transform="translate(258.496077, 266.448777)"><g><path d="M 26.484375 0.71875 C 19.609375 0.71875 14.503906 -0.914062 11.171875 -4.1875 C 7.847656 -7.457031 6.1875 -12.304688 6.1875 -18.734375 L 6.1875 -49.96875 L 15.859375 -49.96875 L 15.859375 -18.796875 C 15.859375 -15.148438 16.734375 -12.414062 18.484375 -10.59375 C 20.242188 -8.769531 22.910156 -7.859375 26.484375 -7.859375 C 33.578125 -7.859375 37.125 -11.503906 37.125 -18.796875 L 37.125 -49.96875 L 46.796875 -49.96875 L 46.796875 -18.734375 C 46.796875 -12.304688 45.128906 -7.457031 41.796875 -4.1875 C 38.472656 -0.914062 33.367188 0.71875 26.484375 0.71875 Z M 26.484375 0.71875 "/></g></g></g><g fill="#a100ff" fill-opacity="1"><g transform="translate(311.471633, 266.448777)"><g><path d="M 17.640625 0.71875 C 15.066406 0.71875 12.707031 0.414062 10.5625 -0.1875 C 8.414062 -0.789062 6.582031 -1.617188 5.0625 -2.671875 C 3.550781 -3.734375 2.429688 -4.953125 1.703125 -6.328125 L 6.96875 -12 L 7.6875 -12 C 8.945312 -10.3125 10.429688 -9.046875 12.140625 -8.203125 C 13.847656 -7.359375 15.703125 -6.9375 17.703125 -6.9375 C 19.546875 -6.9375 20.9375 -7.265625 21.875 -7.921875 C 22.8125 -8.585938 23.28125 -9.535156 23.28125 -10.765625 C 23.28125 -11.722656 22.941406 -12.523438 22.265625 -13.171875 C 21.597656 -13.828125 20.507812 -14.335938 19 -14.703125 L 14.015625 -15.890625 C 10.273438 -16.785156 7.546875 -18.148438 5.828125 -19.984375 C 4.109375 -21.816406 3.25 -24.144531 3.25 -26.96875 C 3.25 -29.3125 3.847656 -31.347656 5.046875 -33.078125 C 6.242188 -34.816406 7.925781 -36.140625 10.09375 -37.046875 C 12.269531 -37.960938 14.804688 -38.421875 17.703125 -38.421875 C 21.097656 -38.421875 23.910156 -37.929688 26.140625 -36.953125 C 28.378906 -35.972656 30.125 -34.660156 31.375 -33.015625 L 26.3125 -27.546875 L 25.640625 -27.546875 C 24.585938 -28.734375 23.40625 -29.597656 22.09375 -30.140625 C 20.78125 -30.691406 19.316406 -30.96875 17.703125 -30.96875 C 13.960938 -30.96875 12.09375 -29.804688 12.09375 -27.484375 C 12.09375 -26.503906 12.441406 -25.707031 13.140625 -25.09375 C 13.835938 -24.476562 15.0625 -23.972656 16.8125 -23.578125 L 21.46875 -22.5625 C 25.289062 -21.738281 28.082031 -20.421875 29.84375 -18.609375 C 31.613281 -16.796875 32.5 -14.363281 32.5 -11.3125 C 32.5 -8.914062 31.90625 -6.804688 30.71875 -4.984375 C 29.539062 -3.160156 27.832031 -1.753906 25.59375 -0.765625 C 23.363281 0.222656 20.710938 0.71875 17.640625 0.71875 Z M 17.640625 0.71875 "/></g></g></g></svg>